<svg width="679" height="679" viewBox="0 0 679 679" fill="none" xmlns="http://www.w3.org/2000/svg">
<rect width="679" height="679" fill="white"/>
<path d="M168.97 583.287L35.5946 95.7128H95.6135L197.55 492.819H202.314L306.156 95.7128H372.844L476.686 492.819H481.45L583.387 95.7128H643.405L510.03 583.287H449.058L341.405 194.751H337.595L229.942 583.287H168.97Z" fill="black"/>
<path fill-rule="evenodd" clip-rule="evenodd" d="M156.972 599L15 80H107.808L200.051 439.341L294.018 80H384.982L478.949 439.341L571.191 80H664L522.028 599H437.101L339.5 246.743L241.899 599H156.972ZM337.595 194.751H341.405L449.058 583.287H510.03L643.405 95.7128H583.387L481.45 492.819H476.686L372.844 95.7128H306.156L202.314 492.819H197.55L95.6135 95.7128H35.5946L168.97 583.287H229.942L337.595 194.751Z" fill="black"/>
<path d="M230.894 394.257H445.724V446.633H230.894V394.257Z" fill="black"/>
<path fill-rule="evenodd" clip-rule="evenodd" d="M424.765 415.207H251.853V425.683H424.765V415.207ZM230.894 394.257V446.633H445.724V394.257H230.894Z" fill="black"/>
</svg>
